name analog
datacolumns 19
datarows 40
range 0.6310000000000002 0.6505000000000003
endheader
time	ground_force_vx	ground_force_vy	ground_force_vz	ground_force_px	ground_force_py	ground_force_pz	l_ground_force_vx	l_ground_force_vy	l_ground_force_vz	l_ground_force_px	l_ground_force_py	l_ground_force_pz	ground_torque_x	ground_torque_y	ground_torque_z	l_ground_torque_x	l_ground_torque_y	l_ground_torque_z
0.6310000000000002	-0.0	-0.0	-0.0	2.353756666183472	40.60921096801758	-381.8152465820313	-1.853186845779419	-41.78585433959961	-413.1371765136719	-0.0	-0.0	-0.0	-0.0	-0.0	-0.0	105559.5	27750.6171875	-5366.892578125
0.6315000000000003	-0.0	-0.0	-0.0	1.7432303428649902	40.52661895751953	-382.1956176757813	-1.7642468214035034	-41.85455703735352	-411.9596862792969	-0.0	-0.0	-0.0	-0.0	-0.0	-0.0	105430.1953125	27944.78515625	-5340.4140625
0.6320000000000003	-0.0	-0.0	-0.0	1.640222191810608	40.55433654785156	-382.5496520996094	-1.6752934455871582	-41.88714599609375	-412.8269958496094	-0.0	-0.0	-0.0	-0.0	-0.0	-0.0	105647.3671875	27876.71875	-5307.25341796875
0.6325000000000003	-0.0	-0.0	-0.0	1.8447823524475095	40.87637710571289	-382.493896484375	-1.5080833435058594	-41.54409790039063	-412.4781494140625	-0.0	-0.0	-0.0	-0.0	-0.0	-0.0	105486.71875	27827.703125	-5258.66845703125
0.6330000000000002	-0.0	-0.0	-0.0	1.9134750366210935	40.86174392700195	-383.2218627929688	-1.752898097038269	-41.66547393798828	-411.9989013671875	-0.0	-0.0	-0.0	-0.0	-0.0	-0.0	105418.2265625	28018.025390625	-5373.89208984375
0.6335000000000003	-0.0	-0.0	-0.0	1.9427493810653689	41.09878921508789	-384.18109130859375	-1.2974663972854614	-41.599517822265625	-413.0035705566406	-0.0	-0.0	-0.0	-0.0	-0.0	-0.0	105291.9921875	27977.59375	-5273.1240234375
0.6340000000000003	-0.0	-0.0	-0.0	1.7194430828094482	40.89585494995117	-384.869384765625	-1.5413551330566406	-41.48912811279297	-413.919189453125	-0.0	-0.0	-0.0	-0.0	-0.0	-0.0	105550.5546875	27877.1484375	-5251.0576171875
0.6345000000000003	-0.0	-0.0	-0.0	1.6210204362869265	41.3521614074707	-386.4563903808594	-1.5527491569519043	-41.4892692565918	-412.4793090820313	-0.0	-0.0	-0.0	-0.0	-0.0	-0.0	105467.0703125	28101.65234375	-5321.50537109375
0.6350000000000002	-0.0	-0.0	-0.0	1.5205214023590088	41.33710861206055	-385.3805847167969	-1.630219578742981	-42.07440185546875	-413.8306884765625	-0.0	-0.0	-0.0	-0.0	-0.0	-0.0	105714.7734375	28096.986328125	-5266.24853515625
0.6355000000000003	-0.0	-0.0	-0.0	1.2489471435546875	41.23243713378906	-384.4886169433594	-1.630295991897583	-42.09609222412109	-413.8839416503906	-0.0	-0.0	-0.0	-0.0	-0.0	-0.0	105765.8125	28126.3984375	-5381.04296875
0.6360000000000003	-0.0	-0.0	-0.0	1.5165786743164062	40.98090362548828	-384.7766723632813	-1.740632176399231	-42.16288375854492	-414.1786193847656	-0.0	-0.0	-0.0	-0.0	-0.0	-0.0	106065.921875	28288.548828125	-5396.39453125
0.6365000000000003	-0.0	-0.0	-0.0	0.889341413974762	40.98381805419922	-384.1206970214844	-1.8629264831542969	-42.47365188598633	-414.5754699707031	-0.0	-0.0	-0.0	-0.0	-0.0	-0.0	106076.4140625	28326.18359375	-5314.8232421875
0.6370000000000002	-0.0	-0.0	-0.0	1.2841509580612185	40.824127197265625	-385.244873046875	-1.9303900003433228	-42.284934997558594	-414.5757446289063	-0.0	-0.0	-0.0	-0.0	-0.0	-0.0	106104.2421875	28098.185546875	-5381.3046875
0.6375000000000003	-0.0	-0.0	-0.0	1.0498251914978027	40.873573303222656	-386.7401428222656	-1.9051345586776731	-42.47008895874024	-415.2743225097656	-0.0	-0.0	-0.0	-0.0	-0.0	-0.0	106117.796875	28424.1875	-5388.390625
0.6380000000000003	-0.0	-0.0	-0.0	0.9829734563827516	40.85704803466797	-383.3336486816406	-1.9516372680664065	-42.591915130615234	-416.1062927246094	-0.0	-0.0	-0.0	-0.0	-0.0	-0.0	106263.1875	28538.12109375	-5429.396484375
0.6385000000000003	-0.0	-0.0	-0.0	0.9458820819854736	40.73259735107422	-384.5452880859375	-1.9648072719573972	-42.89052963256836	-415.4904174804688	-0.0	-0.0	-0.0	-0.0	-0.0	-0.0	106166.5859375	28537.18359375	-5449.6181640625
0.6390000000000002	-0.0	-0.0	-0.0	0.7491905689239502	40.393367767333984	-385.2507934570313	-2.293092727661133	-42.768253326416016	-416.619140625	-0.0	-0.0	-0.0	-0.0	-0.0	-0.0	106145.3671875	28635.615234375	-5518.62548828125
0.6395000000000003	-0.0	-0.0	-0.0	0.8033990859985352	40.60791397094727	-385.1070251464844	-1.8288172483444212	-42.65937805175781	-416.188720703125	-0.0	-0.0	-0.0	-0.0	-0.0	-0.0	106113.890625	28661.126953125	-5570.71728515625
0.6400000000000003	-0.0	-0.0	-0.0	0.8743492364883423	40.48280334472656	-383.4122619628906	-2.449720859527588	-42.938114166259766	-416.1343078613281	-0.0	-0.0	-0.0	-0.0	-0.0	-0.0	106276.6015625	28532.802734375	-5562.00244140625
0.6405000000000003	-0.0	-0.0	-0.0	0.7494163513183594	40.85742568969727	-384.1192626953125	-2.320541858673096	-42.9243392944336	-416.6968688964844	-0.0	-0.0	-0.0	-0.0	-0.0	-0.0	106078.25	28616.701171875	-5584.6904296875
0.6410000000000002	-0.0	-0.0	-0.0	0.4825135469436645	40.87507629394531	-384.4041137695313	-2.346548557281494	-42.781883239746094	-416.3801879882813	-0.0	-0.0	-0.0	-0.0	-0.0	-0.0	106080.859375	28600.5	-5571.193359375
0.6415000000000003	-0.0	-0.0	-0.0	0.5178272128105164	40.571754455566406	-382.9201049804688	-2.2177696228027344	-42.45381927490234	-414.94866943359375	-0.0	-0.0	-0.0	-0.0	-0.0	-0.0	106040.296875	28706.802734375	-5623.7197265625
0.6420000000000003	-0.0	-0.0	-0.0	0.6272732019424438	40.572998046875	-384.8292846679688	-2.1487956047058105	-42.95867538452149	-416.4217834472656	-0.0	-0.0	-0.0	-0.0	-0.0	-0.0	106296.5625	28620.630859375	-5625.54296875
0.6425000000000003	-0.0	-0.0	-0.0	0.3910813927650451	40.99998474121094	-383.5462646484375	-2.410183906555176	-42.90941619873047	-416.1116943359375	-0.0	-0.0	-0.0	-0.0	-0.0	-0.0	106102.9609375	28848.51171875	-5643.767578125
0.6430000000000002	-0.0	-0.0	-0.0	0.4312475323677063	40.73259735107422	-383.191650390625	-2.124837636947632	-42.717411041259766	-415.55029296875	-0.0	-0.0	-0.0	-0.0	-0.0	-0.0	105894.0078125	28735.109375	-5671.69580078125
0.6435000000000003	-0.0	-0.0	-0.0	0.2533643841743469	40.52072525024414	-382.5604553222656	-2.3411967754364014	-42.85903549194336	-415.77880859375	-0.0	-0.0	-0.0	-0.0	-0.0	-0.0	105942.2890625	28829.572265625	-5629.3798828125
0.6440000000000003	-0.0	-0.0	-0.0	0.0892105102539062	40.9304313659668	-381.799072265625	-2.14471435546875	-42.74769592285156	-416.1134338378906	-0.0	-0.0	-0.0	-0.0	-0.0	-0.0	105873.0	28934.0546875	-5631.68310546875
0.6445000000000003	-0.0	-0.0	-0.0	0.2676315307617187	40.73259735107422	-381.499755859375	-2.0752131938934326	-42.62466430664063	-415.5148010253906	-0.0	-0.0	-0.0	-0.0	-0.0	-0.0	105849.1171875	28808.90625	-5684.48095703125
0.6450000000000002	-0.0	-0.0	-0.0	0.0	40.66351318359375	-382.2054748535156	-2.448955774307251	-42.42920303344727	-414.22076416015625	-0.0	-0.0	-0.0	-0.0	-0.0	-0.0	105863.5625	28648.705078125	-5601.943359375
0.6455000000000003	-0.0	-0.0	-0.0	0.5676922798156738	40.720458984375	-381.0008544921875	-2.45121693611145	-42.76629257202149	-414.2316589355469	-0.0	-0.0	-0.0	-0.0	-0.0	-0.0	105844.2109375	28590.408203125	-5601.15478515625
0.6460000000000004	-0.0	-0.0	-0.0	-0.0205138474702835	40.80568313598633	-379.396484375	-2.2177696228027344	-42.58755493164063	-414.435302734375	-0.0	-0.0	-0.0	-0.0	-0.0	-0.0	105688.640625	28603.369140625	-5589.23388671875
0.6465000000000003	-0.0	-0.0	-0.0	0.2309753596782684	41.0732307434082	-380.87310791015625	-2.1626880168914795	-42.30455017089844	-414.0276489257813	-0.0	-0.0	-0.0	-0.0	-0.0	-0.0	105701.3125	28664.484375	-5618.78662109375
0.6470000000000002	-0.0	-0.0	-0.0	0.015752650797367	41.01572799682617	-381.2265625	-2.146090507507324	-42.783966064453125	-415.7008666992188	-0.0	-0.0	-0.0	-0.0	-0.0	-0.0	105912.25	28595.7109375	-5624.59228515625
0.6475000000000003	-0.0	-0.0	-0.0	0.1260162889957428	41.10470199584961	-381.4961242675781	-2.005826473236084	-42.69454574584961	-415.3514099121094	-0.0	-0.0	-0.0	-0.0	-0.0	-0.0	105800.703125	28557.67578125	-5595.150390625
0.6480000000000004	-0.0	-0.0	-0.0	-0.2461809813976287	40.89543151855469	-381.3494262695313	-2.235671281814575	-42.97741317749024	-415.4215393066406	-0.0	-0.0	-0.0	-0.0	-0.0	-0.0	105975.7421875	28555.935546875	-5547.84228515625
0.6485000000000003	-0.0	-0.0	-0.0	-0.0369638688862323	41.030521392822266	-379.4869079589844	-2.20000433921814	-42.90668869018555	-415.979248046875	-0.0	-0.0	-0.0	-0.0	-0.0	-0.0	106262.515625	28628.009765625	-5630.8310546875
0.6490000000000002	-0.0	-0.0	-0.0	0.0151387676596641	40.93273162841797	-381.1410827636719	-2.3596384525299072	-43.0305290222168	-415.6316833496094	-0.0	-0.0	-0.0	-0.0	-0.0	-0.0	106242.8125	28479.482421875	-5696.21533203125
0.6495000000000003	-0.0	-0.0	-0.0	-0.0149936378002166	41.14117050170898	-381.4625244140625	-2.5719103813171387	-43.03074645996094	-415.7736206054688	-0.0	-0.0	-0.0	-0.0	-0.0	-0.0	106230.046875	28712.380859375	-5696.341796875
0.6500000000000004	-0.0	-0.0	-0.0	-0.1188904196023941	40.866207122802734	-380.25732421875	-2.4839019775390625	-42.9243392944336	-416.9551696777344	-0.0	-0.0	-0.0	-0.0	-0.0	-0.0	106092.3828125	28612.703125	-5606.8720703125
0.6505000000000003	-0.0	-0.0	-0.0	0.1185646206140518	40.71792984008789	-380.49554443359375	-2.236405372619629	-43.18930816650391	-415.6253967285156	-0.0	-0.0	-0.0	-0.0	-0.0	-0.0	105869.6953125	28591.3984375	-5601.86328125
